<?xml version="1.0" encoding="utf-8"?>
<!-- Generator: Adobe Illustrator 28.0.0, SVG Export Plug-In . SVG Version: 6.00 Build 0)  -->
<svg version="1.1" id="Calque_1" xmlns="http://www.w3.org/2000/svg" xmlns:xlink="http://www.w3.org/1999/xlink" x="0px" y="0px"
	 viewBox="0 0 256 256" style="enable-background:new 0 0 256 256;" xml:space="preserve">
<style type="text/css">
	.st0{fill:#F4F2F2;}
</style>
<g>
	<path class="st0" d="M240,112V80h-16V48h-16V32h-48v16H96V32H48v16H32v32H16v32H0v80h16v16h32v16h32v-16H64v-16h32v16h64v-16h32v16
		h-16v16h32v-16h32v-16h16v-80H240z M64,160v-48h48v48H64z M144,160v-48h48v48H144z"/>
	<rect x="48" y="208" class="st0" width="32" height="16"/>
	<rect x="16" y="192" class="st0" width="48" height="16"/>
	<rect y="112" class="st0" width="16" height="80"/>
	<rect x="16" y="80" class="st0" width="16" height="32"/>
	<rect x="32" y="48" class="st0" width="16" height="32"/>
	<rect x="48" y="32" class="st0" width="48" height="16"/>
	<rect x="96" y="48" class="st0" width="64" height="16"/>
	<rect x="160" y="32" class="st0" width="48" height="16"/>
	<rect x="208" y="48" class="st0" width="16" height="16"/>
	<rect x="240" y="112" class="st0" width="16" height="80"/>
	<rect x="224" y="79.46" class="st0" width="16" height="32.54"/>
	<rect x="192" y="192" class="st0" width="48" height="16"/>
	<rect x="176" y="208" class="st0" width="32" height="16"/>
	<rect x="160" y="176" class="st0" width="32" height="16"/>
	<rect x="96" y="192" class="st0" width="64" height="16"/>
	<rect x="64" y="176" class="st0" width="32" height="16"/>
	<rect x="16" y="112" class="st0" width="16" height="16"/>
	<rect x="48" y="48" class="st0" width="16" height="16"/>
	<rect x="192" y="48" class="st0" width="16" height="16"/>
	<rect x="224" y="176" class="st0" width="16" height="16"/>
	<rect x="16" y="176" class="st0" width="16" height="16"/>
	<rect x="224" y="112" class="st0" width="16" height="16"/>
	<rect x="208" y="64" class="st0" width="16" height="16"/>
</g>
</svg>
