<!DOCTYPE svg PUBLIC "-//W3C//DTD SVG 1.1//EN" "http://www.w3.org/Graphics/SVG/1.1/DTD/svg11.dtd">
<!-- Uploaded to: SVG Repo, www.svgrepo.com, Transformed by: SVG Repo Mixer Tools -->
<svg fill="#ffffff" width="800px" height="800px" viewBox="0 0 1024 1024" xmlns="http://www.w3.org/2000/svg" class="icon" stroke="#ffffff">
<g id="SVGRepo_bgCarrier" stroke-width="0"/>
<g id="SVGRepo_tracerCarrier" stroke-linecap="round" stroke-linejoin="round"/>
<g id="SVGRepo_iconCarrier"> <path d="M916 210H376c-17.7 0-32 14.3-32 32v236H108c-17.7 0-32 14.3-32 32v272c0 17.7 14.3 32 32 32h540c17.7 0 32-14.3 32-32V546h236c17.7 0 32-14.3 32-32V242c0-17.7-14.3-32-32-32zm-504 68h200v200H412V278zm-68 468H144V546h200v200zm268 0H412V546h200v200zm268-268H680V278h200v200z"/> </g>
</svg>